<svg width="26" height="25" viewBox="0 0 26 25" fill="none" xmlns="http://www.w3.org/2000/svg">
<g clip-path="url(#clip0_16_7)">
<path d="M26 11.3134C25.999 11.1657 25.9653 11.02 25.9014 10.8869C25.8374 10.7538 25.7447 10.6365 25.63 10.5434L13.63 0.723405C13.4518 0.578877 13.2294 0.5 13 0.5C12.7706 0.5 12.5482 0.578877 12.37 0.723405L0.37 10.5434C0.255287 10.6365 0.162613 10.7538 0.0986378 10.8869C0.0346631 11.02 0.000976784 11.1657 0 11.3134C0 11.5786 0.105357 11.833 0.292893 12.0205C0.48043 12.208 0.734784 12.3134 1 12.3134C1.23114 12.3168 1.45542 12.2349 1.63 12.0834L3 10.9634V21.6934C3.00264 22.4352 3.29848 23.1459 3.82301 23.6704C4.34754 24.1949 5.05821 24.4908 5.8 24.4934H8.7C9.44179 24.4908 10.1525 24.1949 10.677 23.6704C11.2015 23.1459 11.4974 22.4352 11.5 21.6934V20.2934C11.5 20.0812 11.5843 19.8777 11.7343 19.7277C11.8843 19.5777 12.0878 19.4934 12.3 19.4934H13.7C13.9122 19.4934 14.1157 19.5777 14.2657 19.7277C14.4157 19.8777 14.5 20.0812 14.5 20.2934V21.6934C14.5026 22.4352 14.7985 23.1459 15.323 23.6704C15.8475 24.1949 16.5582 24.4908 17.3 24.4934H20.2C20.9418 24.4908 21.6525 24.1949 22.177 23.6704C22.7015 23.1459 22.9974 22.4352 23 21.6934V10.9634L24.37 12.0834C24.5446 12.2349 24.7689 12.3168 25 12.3134C25.2652 12.3134 25.5196 12.208 25.7071 12.0205C25.8946 11.833 26 11.5786 26 11.3134ZM21 21.6934C21 21.9056 20.9157 22.1091 20.7657 22.2591C20.6157 22.4091 20.4122 22.4934 20.2 22.4934H17.3C17.0878 22.4934 16.8843 22.4091 16.7343 22.2591C16.5843 22.1091 16.5 21.9056 16.5 21.6934V20.2934C16.4974 19.5516 16.2015 18.8409 15.677 18.3164C15.1525 17.7919 14.4418 17.496 13.7 17.4934H12.3C11.5582 17.496 10.8475 17.7919 10.323 18.3164C9.79848 18.8409 9.50264 19.5516 9.5 20.2934V21.6934C9.5 21.9056 9.41571 22.1091 9.26569 22.2591C9.11566 22.4091 8.91217 22.4934 8.7 22.4934H5.8C5.58783 22.4934 5.38434 22.4091 5.23431 22.2591C5.08429 22.1091 5 21.9056 5 21.6934V9.3334L13 2.7834L21 9.3334V21.6934Z" fill="#8A96A3"/>
</g>
<defs>
<clipPath id="clip0_16_7">
<rect width="26" height="24" fill="white" transform="translate(0 0.5)"/>
</clipPath>
</defs>
</svg>
