<svg width="26" height="24" viewBox="0 0 26 24" fill="none" xmlns="http://www.w3.org/2000/svg">
<path d="M26 10.8134C25.999 10.6657 25.9653 10.52 25.9014 10.3869C25.8374 10.2538 25.7447 10.1365 25.63 10.0434L13.63 0.223405C13.4518 0.0788773 13.2294 0 13 0C12.7706 0 12.5482 0.0788773 12.37 0.223405L0.37 10.0434C0.255287 10.1365 0.162613 10.2538 0.0986378 10.3869C0.0346631 10.52 0.000976784 10.6657 0 10.8134C0 11.0786 0.105357 11.333 0.292893 11.5205C0.48043 11.708 0.734784 11.8134 1 11.8134C1.23114 11.8168 1.45542 11.7349 1.63 11.5834L3 10.4634V21.1934C3.00264 21.9352 3.29848 22.6459 3.82301 23.1704C4.34754 23.6949 5.05821 23.9908 5.8 23.9934H8.7C9.44179 23.9908 10.1525 23.6949 10.677 23.1704C11.2015 22.6459 11.4974 21.9352 11.5 21.1934V19.7934C11.5 19.5812 11.5843 19.3777 11.7343 19.2277C11.8843 19.0777 12.0878 18.9934 12.3 18.9934H13.7C13.9122 18.9934 14.1157 19.0777 14.2657 19.2277C14.4157 19.3777 14.5 19.5812 14.5 19.7934V21.1934C14.5026 21.9352 14.7985 22.6459 15.323 23.1704C15.8475 23.6949 16.5582 23.9908 17.3 23.9934H20.2C20.9418 23.9908 21.6525 23.6949 22.177 23.1704C22.7015 22.6459 22.9974 21.9352 23 21.1934V10.4634L24.37 11.5834C24.5446 11.7349 24.7689 11.8168 25 11.8134C25.2652 11.8134 25.5196 11.708 25.7071 11.5205C25.8946 11.333 26 11.0786 26 10.8134ZM21 21.1934C21 21.4056 20.9157 21.6091 20.7657 21.7591C20.6157 21.9091 20.4122 21.9934 20.2 21.9934H17.3C17.0878 21.9934 16.8843 21.9091 16.7343 21.7591C16.5843 21.6091 16.5 21.4056 16.5 21.1934V19.7934C16.4974 19.0516 16.2015 18.3409 15.677 17.8164C15.1525 17.2919 14.4418 16.996 13.7 16.9934H12.3C11.5582 16.996 10.8475 17.2919 10.323 17.8164C9.79848 18.3409 9.50264 19.0516 9.5 19.7934V21.1934C9.5 21.4056 9.41571 21.6091 9.26569 21.7591C9.11566 21.9091 8.91217 21.9934 8.7 21.9934H5.8C5.58783 21.9934 5.38434 21.9091 5.23431 21.7591C5.08429 21.6091 5 21.4056 5 21.1934V8.8334L13 2.2834L21 8.8334V21.1934Z" fill="#37FFCF"/>
</svg>
