<svg width="22" height="25" viewBox="0 0 22 25" fill="none" xmlns="http://www.w3.org/2000/svg">
<path d="M16.0002 0H6.00017C4.40887 0 2.88274 0.632141 1.75752 1.75736C0.632307 2.88258 0.000165471 4.4087 0.000165471 6V23.5C-0.00411501 23.7354 0.074771 23.9647 0.222936 24.1476C0.371101 24.3305 0.579047 24.4553 0.810165 24.5H1.00017C1.20044 24.5002 1.39617 24.4402 1.56198 24.3279C1.7278 24.2156 1.85606 24.0561 1.93017 23.87C2.15368 23.3203 2.53521 22.8492 3.02649 22.5163C3.51778 22.1835 4.09675 22.0038 4.69017 22H16.0002C17.5915 22 19.1176 21.3679 20.2428 20.2426C21.368 19.1174 22.0002 17.5913 22.0002 16V6C22.0002 4.4087 21.368 2.88258 20.2428 1.75736C19.1176 0.632141 17.5915 0 16.0002 0ZM20.0002 16C20.0002 17.0609 19.5787 18.0783 18.8286 18.8284C18.0784 19.5786 17.061 20 16.0002 20H4.69017C3.73569 19.9957 2.80075 20.2703 2.00017 20.79V6C2.00017 4.93913 2.42159 3.92172 3.17174 3.17157C3.92188 2.42143 4.9393 2 6.00017 2H16.0002C17.061 2 18.0784 2.42143 18.8286 3.17157C19.5787 3.92172 20.0002 4.93913 20.0002 6V16ZM14.0002 8H8.00017C7.73495 8 7.4806 8.10536 7.29306 8.29289C7.10552 8.48043 7.00017 8.73478 7.00017 9C7.00017 9.26522 7.10552 9.51957 7.29306 9.70711C7.4806 9.89464 7.73495 10 8.00017 10H14.0002C14.2654 10 14.5197 9.89464 14.7073 9.70711C14.8948 9.51957 15.0002 9.26522 15.0002 9C15.0002 8.73478 14.8948 8.48043 14.7073 8.29289C14.5197 8.10536 14.2654 8 14.0002 8ZM11.0002 12H8.00017C7.73495 12 7.4806 12.1054 7.29306 12.2929C7.10552 12.4804 7.00017 12.7348 7.00017 13C7.00017 13.2652 7.10552 13.5196 7.29306 13.7071C7.4806 13.8946 7.73495 14 8.00017 14H11.0002C11.2654 14 11.5197 13.8946 11.7073 13.7071C11.8948 13.5196 12.0002 13.2652 12.0002 13C12.0002 12.7348 11.8948 12.4804 11.7073 12.2929C11.5197 12.1054 11.2654 12 11.0002 12Z" fill="#37FFCF"/>
</svg>
