<svg width="22" height="26" viewBox="0 0 22 26" fill="none" xmlns="http://www.w3.org/2000/svg">
<g clip-path="url(#clip0_16_9)">
<path d="M16.0002 0.5H6.00017C4.40887 0.5 2.88274 1.13214 1.75752 2.25736C0.632307 3.38258 0.000165471 4.9087 0.000165471 6.5V24C-0.00411501 24.2354 0.074771 24.4647 0.222936 24.6476C0.371101 24.8305 0.579047 24.9553 0.810165 25H1.00017C1.20044 25.0002 1.39617 24.9402 1.56198 24.8279C1.7278 24.7156 1.85606 24.5561 1.93017 24.37C2.15368 23.8203 2.53521 23.3492 3.02649 23.0163C3.51778 22.6835 4.09675 22.5038 4.69017 22.5H16.0002C17.5915 22.5 19.1176 21.8679 20.2428 20.7426C21.368 19.6174 22.0002 18.0913 22.0002 16.5V6.5C22.0002 4.9087 21.368 3.38258 20.2428 2.25736C19.1176 1.13214 17.5915 0.5 16.0002 0.5ZM20.0002 16.5C20.0002 17.5609 19.5787 18.5783 18.8286 19.3284C18.0784 20.0786 17.061 20.5 16.0002 20.5H4.69017C3.73569 20.4957 2.80075 20.7703 2.00017 21.29V6.5C2.00017 5.43913 2.42159 4.42172 3.17174 3.67157C3.92188 2.92143 4.9393 2.5 6.00017 2.5H16.0002C17.061 2.5 18.0784 2.92143 18.8286 3.67157C19.5787 4.42172 20.0002 5.43913 20.0002 6.5V16.5ZM14.0002 8.5H8.00017C7.73495 8.5 7.4806 8.60536 7.29306 8.79289C7.10552 8.98043 7.00017 9.23478 7.00017 9.5C7.00017 9.76522 7.10552 10.0196 7.29306 10.2071C7.4806 10.3946 7.73495 10.5 8.00017 10.5H14.0002C14.2654 10.5 14.5197 10.3946 14.7073 10.2071C14.8948 10.0196 15.0002 9.76522 15.0002 9.5C15.0002 9.23478 14.8948 8.98043 14.7073 8.79289C14.5197 8.60536 14.2654 8.5 14.0002 8.5ZM11.0002 12.5H8.00017C7.73495 12.5 7.4806 12.6054 7.29306 12.7929C7.10552 12.9804 7.00017 13.2348 7.00017 13.5C7.00017 13.7652 7.10552 14.0196 7.29306 14.2071C7.4806 14.3946 7.73495 14.5 8.00017 14.5H11.0002C11.2654 14.5 11.5197 14.3946 11.7073 14.2071C11.8948 14.0196 12.0002 13.7652 12.0002 13.5C12.0002 13.2348 11.8948 12.9804 11.7073 12.7929C11.5197 12.6054 11.2654 12.5 11.0002 12.5Z" fill="#8A96A3"/>
</g>
<defs>
<clipPath id="clip0_16_9">
<rect width="22" height="25" fill="white" transform="translate(0 0.5)"/>
</clipPath>
</defs>
</svg>
