<svg width="26" height="25" viewBox="0 0 26 25" fill="none" xmlns="http://www.w3.org/2000/svg">
<path d="M24.1 18C23.8951 17.9987 23.6925 17.957 23.5038 17.8774C23.315 17.7978 23.1438 17.6818 22.9998 17.536C22.8559 17.3902 22.7421 17.2175 22.6649 17.0278C22.5877 16.838 22.5487 16.6349 22.55 16.43V10C22.55 7.34784 21.4964 4.8043 19.6211 2.92893C17.7457 1.05357 15.2022 0 12.55 0C9.89784 0 7.3543 1.05357 5.47893 2.92893C3.60357 4.8043 2.55 7.34784 2.55 10V16.44C2.55001 16.852 2.38703 17.2473 2.09663 17.5396C1.80623 17.8318 1.412 17.9974 1 18C0.734783 18 0.48043 18.1054 0.292893 18.2929C0.105357 18.4804 0 18.7348 0 19C0 19.2652 0.105357 19.5196 0.292893 19.7071C0.48043 19.8946 0.734783 20 1 20H7.65C7.87952 21.1303 8.49273 22.1465 9.38574 22.8764C10.2788 23.6063 11.3966 24.005 12.55 24.005C13.7034 24.005 14.8212 23.6063 15.7143 22.8764C16.6073 22.1465 17.2205 21.1303 17.45 20H24.1C24.3652 20 24.6196 19.8946 24.8071 19.7071C24.9946 19.5196 25.1 19.2652 25.1 19C25.1 18.7348 24.9946 18.4804 24.8071 18.2929C24.6196 18.1054 24.3652 18 24.1 18ZM12.55 22C11.9311 21.9983 11.3278 21.8051 10.8229 21.4471C10.3181 21.089 9.93631 20.5835 9.73 20H15.37C15.1637 20.5835 14.7819 21.089 14.2771 21.4471C13.7722 21.8051 13.1689 21.9983 12.55 22ZM4.2 18C4.43425 17.51 4.55394 16.9731 4.55 16.43V10C4.55 7.87827 5.39285 5.84344 6.89315 4.34315C8.39344 2.84285 10.4283 2 12.55 2C14.6717 2 16.7066 2.84285 18.2069 4.34315C19.7071 5.84344 20.55 7.87827 20.55 10V16.44C20.5476 16.9797 20.6672 17.513 20.9 18H4.2Z" fill="#37FFCF"/>
</svg>
