<svg width="26" height="26" viewBox="0 0 26 26" fill="none" xmlns="http://www.w3.org/2000/svg">
<g clip-path="url(#clip0_16_2)">
<path d="M24.1 18.5C23.8951 18.4987 23.6925 18.457 23.5038 18.3774C23.315 18.2978 23.1438 18.1818 22.9998 18.036C22.8559 17.8902 22.7421 17.7175 22.6649 17.5278C22.5877 17.338 22.5487 17.1349 22.55 16.93V10.5C22.55 7.84784 21.4964 5.3043 19.6211 3.42893C17.7457 1.55357 15.2022 0.5 12.55 0.5C9.89784 0.5 7.3543 1.55357 5.47893 3.42893C3.60357 5.3043 2.55 7.84784 2.55 10.5V16.94C2.55001 17.352 2.38703 17.7473 2.09663 18.0396C1.80623 18.3318 1.412 18.4974 1 18.5C0.734783 18.5 0.48043 18.6054 0.292893 18.7929C0.105357 18.9804 0 19.2348 0 19.5C0 19.7652 0.105357 20.0196 0.292893 20.2071C0.48043 20.3946 0.734783 20.5 1 20.5H7.65C7.87952 21.6303 8.49273 22.6465 9.38574 23.3764C10.2788 24.1063 11.3966 24.505 12.55 24.505C13.7034 24.505 14.8212 24.1063 15.7143 23.3764C16.6073 22.6465 17.2205 21.6303 17.45 20.5H24.1C24.3652 20.5 24.6196 20.3946 24.8071 20.2071C24.9946 20.0196 25.1 19.7652 25.1 19.5C25.1 19.2348 24.9946 18.9804 24.8071 18.7929C24.6196 18.6054 24.3652 18.5 24.1 18.5ZM12.55 22.5C11.9311 22.4983 11.3278 22.3051 10.8229 21.9471C10.3181 21.589 9.93631 21.0835 9.73 20.5H15.37C15.1637 21.0835 14.7819 21.589 14.2771 21.9471C13.7722 22.3051 13.1689 22.4983 12.55 22.5ZM4.2 18.5C4.43425 18.01 4.55394 17.4731 4.55 16.93V10.5C4.55 8.37827 5.39285 6.34344 6.89315 4.84315C8.39344 3.34285 10.4283 2.5 12.55 2.5C14.6717 2.5 16.7066 3.34285 18.2069 4.84315C19.7071 6.34344 20.55 8.37827 20.55 10.5V16.94C20.5476 17.4797 20.6672 18.013 20.9 18.5H4.2Z" fill="#8A96A3"/>
</g>
<defs>
<clipPath id="clip0_16_2">
<rect width="26" height="25" fill="white" transform="translate(0 0.5)"/>
</clipPath>
</defs>
</svg>
