<svg width="26" height="26" viewBox="0 0 26 26" fill="none" xmlns="http://www.w3.org/2000/svg">
<path d="M13.0357 13.4643V12.9643H12.5357H6.49998C6.38632 12.9643 6.27731 12.9191 6.19694 12.8388C6.11656 12.7584 6.07141 12.6494 6.07141 12.5357C6.07141 12.422 6.11656 12.313 6.19694 12.2327C6.27731 12.1523 6.38632 12.1071 6.49998 12.1071H12.5357H13.0357V11.6071V5.57142C13.0357 5.45776 13.0808 5.34875 13.1612 5.26838C13.2416 5.18801 13.3506 5.14285 13.4643 5.14285C13.5779 5.14285 13.6869 5.18801 13.7673 5.26838C13.8477 5.34875 13.8928 5.45776 13.8928 5.57142V11.6071V12.1071H14.3928H20.4286C20.5422 12.1071 20.6512 12.1523 20.7316 12.2327C20.812 12.313 20.8571 12.422 20.8571 12.5357C20.8571 12.6494 20.812 12.7584 20.7316 12.8388C20.6512 12.9191 20.5422 12.9643 20.4286 12.9643H14.3928H13.8928V13.4643V19.5C13.8928 19.6137 13.8477 19.7227 13.7673 19.803C13.6869 19.8834 13.5779 19.9286 13.4643 19.9286C13.3506 19.9286 13.2416 19.8834 13.1612 19.803C13.0808 19.7227 13.0357 19.6137 13.0357 19.5V13.4643Z" fill="#37FFCF" stroke="#37FFCF"/>
<rect x="0.9" y="0.9" width="24.2" height="24.2" rx="4.1" stroke="#37FFCF" stroke-width="1.8"/>
</svg>
