<svg width="26" height="27" viewBox="0 0 26 27" fill="none" xmlns="http://www.w3.org/2000/svg">
<g clip-path="url(#clip0_16_4)">
<path d="M13.0357 13.9643V13.4643H12.5357H6.49998C6.38632 13.4643 6.27731 13.4191 6.19694 13.3388C6.11656 13.2584 6.07141 13.1494 6.07141 13.0357C6.07141 12.922 6.11656 12.813 6.19694 12.7327C6.27731 12.6523 6.38632 12.6071 6.49998 12.6071H12.5357H13.0357V12.1071V6.07139C13.0357 5.95773 13.0808 5.84872 13.1612 5.76835C13.2416 5.68798 13.3506 5.64282 13.4643 5.64282C13.5779 5.64282 13.6869 5.68798 13.7673 5.76835C13.8477 5.84872 13.8928 5.95773 13.8928 6.07139V12.1071V12.6071H14.3928H20.4286C20.5422 12.6071 20.6512 12.6523 20.7316 12.7327C20.812 12.813 20.8571 12.922 20.8571 13.0357C20.8571 13.1494 20.812 13.2584 20.7316 13.3388C20.6512 13.4191 20.5422 13.4643 20.4286 13.4643H14.3928H13.8928V13.9643V20C13.8928 20.1137 13.8477 20.2227 13.7673 20.303C13.6869 20.3834 13.5779 20.4286 13.4643 20.4286C13.3506 20.4286 13.2416 20.3834 13.1612 20.303C13.0808 20.2227 13.0357 20.1137 13.0357 20V13.9643Z" fill="#8A96A3" stroke="#8A96A3"/>
<path d="M21 1.40002H5C2.73563 1.40002 0.900002 3.23566 0.900002 5.50002V21.5C0.900002 23.7644 2.73563 25.6 5 25.6H21C23.2644 25.6 25.1 23.7644 25.1 21.5V5.50002C25.1 3.23566 23.2644 1.40002 21 1.40002Z" stroke="#8A96A3" stroke-width="1.8"/>
</g>
<defs>
<clipPath id="clip0_16_4">
<rect width="26" height="26" fill="white" transform="translate(0 0.5)"/>
</clipPath>
</defs>
</svg>
