<svg width="24" height="24" viewBox="0 0 24 24" fill="none" xmlns="http://www.w3.org/2000/svg">
<path d="M12 0C9.62663 0 7.30655 0.703788 5.33316 2.02236C3.35977 3.34094 1.8217 5.21509 0.913451 7.4078C0.00519943 9.60051 -0.232441 12.0133 0.230582 14.3411C0.693605 16.6689 1.83649 18.8071 3.51472 20.4853C5.19295 22.1635 7.33115 23.3064 9.65892 23.7694C11.9867 24.2324 14.3995 23.9948 16.5922 23.0866C18.7849 22.1783 20.6591 20.6402 21.9776 18.6668C23.2962 16.6935 24 14.3734 24 12C24 8.8174 22.7357 5.76516 20.4853 3.51472C18.2349 1.26428 15.1826 0 12 0ZM12 22C11.1009 21.9948 10.2064 21.8704 9.34001 21.63C9.59361 21.1437 9.97567 20.7363 10.4446 20.4519C10.9136 20.1676 11.4516 20.0172 12 20.0172C12.5484 20.0172 13.0864 20.1676 13.5554 20.4519C14.0243 20.7363 14.4064 21.1437 14.66 21.63C13.7936 21.8704 12.8991 21.9948 12 22ZM16.52 20.91C16.1106 20.0646 15.4713 19.3517 14.6754 18.8529C13.8796 18.354 12.9593 18.0894 12.02 18.0894C11.0807 18.0894 10.1604 18.354 9.36456 18.8529C8.56869 19.3517 7.92943 20.0646 7.52001 20.91C5.51067 19.8975 3.90152 18.2369 2.95267 16.1968C2.00383 14.1566 1.77075 11.856 2.29111 9.66702C2.81147 7.47799 4.05486 5.52843 5.82029 4.13347C7.58571 2.73852 9.76998 1.97971 12.02 1.97971C14.27 1.97971 16.4543 2.73852 18.2197 4.13347C19.9851 5.52843 21.2285 7.47799 21.7489 9.66702C22.2693 11.856 22.0362 14.1566 21.0873 16.1968C20.1385 18.2369 18.5293 19.8975 16.52 20.91ZM12 8C11.2089 8 10.4355 8.2346 9.77773 8.67412C9.11993 9.11365 8.60724 9.73836 8.30449 10.4693C8.00174 11.2002 7.92252 12.0044 8.07686 12.7804C8.23121 13.5563 8.61217 14.269 9.17158 14.8284C9.73099 15.3878 10.4437 15.7688 11.2196 15.9231C11.9956 16.0775 12.7998 15.9983 13.5307 15.6955C14.2616 15.3928 14.8864 14.8801 15.3259 14.2223C15.7654 13.5645 16 12.7911 16 12C16 10.9391 15.5786 9.92172 14.8284 9.17157C14.0783 8.42143 13.0609 8 12 8ZM12 14C11.6044 14 11.2178 13.8827 10.8889 13.6629C10.56 13.4432 10.3036 13.1308 10.1522 12.7654C10.0009 12.3999 9.96126 11.9978 10.0384 11.6098C10.1156 11.2219 10.3061 10.8655 10.5858 10.5858C10.8655 10.3061 11.2219 10.1156 11.6098 10.0384C11.9978 9.96126 12.3999 10.0009 12.7654 10.1522C13.1308 10.3036 13.4432 10.56 13.6629 10.8889C13.8827 11.2178 14 11.6044 14 12C14 12.5304 13.7893 13.0391 13.4142 13.4142C13.0391 13.7893 12.5304 14 12 14Z" fill="#8A96A3"/>
</svg>
