<svg width="18" height="21" viewBox="0 0 18 21" fill="none" xmlns="http://www.w3.org/2000/svg">
<path d="M8.96316 12C8.69616 12 8.43515 12.0792 8.21314 12.2275C7.99114 12.3759 7.81811 12.5867 7.71593 12.8334C7.61375 13.0801 7.58701 13.3515 7.6391 13.6134C7.69119 13.8752 7.81977 14.1158 8.00857 14.3046C8.19737 14.4934 8.43792 14.622 8.69979 14.6741C8.96167 14.7262 9.23311 14.6994 9.47979 14.5972C9.72647 14.4951 9.93731 14.322 10.0856 14.1C10.234 13.878 10.3132 13.617 10.3132 13.35C10.3145 13.1723 10.2805 12.9962 10.2131 12.8318C10.1457 12.6674 10.0463 12.5181 9.92072 12.3924C9.7951 12.2668 9.64575 12.1674 9.48136 12.1001C9.31697 12.0327 9.14082 11.9987 8.96316 12ZM8.96316 0C6.66931 0.00939132 4.46561 0.894305 2.80231 2.47394C1.139 4.05358 0.141626 6.20871 0.0139604 8.49903C-0.113705 10.7893 0.637974 13.042 2.11542 14.7967C3.59287 16.5514 5.68457 17.6757 7.96316 17.94V20C7.96316 20.2652 8.06852 20.5196 8.25606 20.7071C8.44359 20.8946 8.69795 21 8.96316 21C10.0532 21 17.9632 16.37 17.9632 9C17.9632 6.61305 17.015 4.32387 15.3271 2.63604C13.6393 0.948211 11.3501 0 8.96316 0ZM9.96316 18.28V17C9.96316 16.7348 9.85781 16.4804 9.67027 16.2929C9.48273 16.1054 9.22838 16 8.96316 16C7.5787 16 6.22532 15.5895 5.07417 14.8203C3.92303 14.0511 3.02582 12.9579 2.49601 11.6788C1.96619 10.3997 1.82757 8.99223 2.09767 7.63437C2.36776 6.2765 3.03445 5.02922 4.01342 4.05025C4.99238 3.07128 6.23967 2.4046 7.59753 2.1345C8.9554 1.86441 10.3629 2.00303 11.6419 2.53284C12.921 3.06266 14.0143 3.95986 14.7835 5.11101C15.5526 6.26215 15.9632 7.61553 15.9632 9C15.9632 13.06 12.9632 16.35 9.96316 18.28ZM9.01316 4C8.13149 3.96656 7.26971 4.26735 6.60033 4.84217C5.93095 5.41698 5.50337 6.2234 5.40316 7.1C5.40045 7.1389 5.40562 7.17795 5.41835 7.21482C5.43108 7.25168 5.45111 7.28559 5.47725 7.31453C5.50339 7.34347 5.5351 7.36684 5.57048 7.38325C5.60586 7.39965 5.64419 7.40875 5.68316 7.41H7.27316C7.53316 7.41 7.62316 7.24 7.71316 6.98C7.80519 6.71838 7.98499 6.49671 8.22199 6.35269C8.45899 6.20866 8.73856 6.15118 9.01316 6.19C9.65316 6.19 10.1832 6.42 10.1832 7.07C10.1832 8.17 7.83316 8.75 7.83316 10.62C7.83042 10.7165 7.86548 10.8102 7.93086 10.8812C7.99625 10.9522 8.08679 10.9948 8.18316 11H9.77316C9.94316 11 10.0632 10.87 10.1232 10.62C10.4532 9.32 12.5232 8.95 12.5232 6.91C12.5232 5.15 10.8732 4 9.01316 4Z" fill="black"/>
</svg>
